<mxfile host="app.diagrams.net" agent="Mozilla/5.0 (X11; Linux x86_64) AppleWebKit/537.36 (KHTML, like Gecko) Chrome/139.0.0.0 Safari/537.36" version="28.0.7">
  <diagram name="Page-1" id="t_khpyUX_1Rj3A86BWHd">
    <mxGraphModel dx="837" dy="821" grid="1" gridSize="10" guides="1" tooltips="1" connect="1" arrows="1" fold="1" page="1" pageScale="1" pageWidth="850" pageHeight="1100" math="0" shadow="0">
      <root>
        <mxCell id="0" />
        <mxCell id="1" parent="0" />
        <mxCell id="GgNEqTQJARG_0DhbJ5Vq-8" value="" style="rounded=0;whiteSpace=wrap;html=1;" vertex="1" parent="1">
          <mxGeometry x="200" y="80" width="340" height="280" as="geometry" />
        </mxCell>
        <mxCell id="GgNEqTQJARG_0DhbJ5Vq-28" value="" style="rounded=0;whiteSpace=wrap;html=1;labelPosition=center;verticalLabelPosition=middle;align=center;verticalAlign=middle;dashed=1;" vertex="1" parent="1">
          <mxGeometry x="371.38" y="159" width="158.5" height="130" as="geometry" />
        </mxCell>
        <mxCell id="GgNEqTQJARG_0DhbJ5Vq-20" value="" style="rounded=0;whiteSpace=wrap;html=1;labelPosition=center;verticalLabelPosition=middle;align=center;verticalAlign=middle;dashed=1;" vertex="1" parent="1">
          <mxGeometry x="362" y="150" width="158.5" height="130" as="geometry" />
        </mxCell>
        <mxCell id="GgNEqTQJARG_0DhbJ5Vq-17" value="" style="rounded=0;whiteSpace=wrap;html=1;labelPosition=center;verticalLabelPosition=middle;align=center;verticalAlign=middle;dashed=1;" vertex="1" parent="1">
          <mxGeometry x="210.5" y="111" width="141.5" height="239" as="geometry" />
        </mxCell>
        <mxCell id="GgNEqTQJARG_0DhbJ5Vq-1" value="Client" style="points=[[0.35,0,0],[0.98,0.51,0],[1,0.71,0],[0.67,1,0],[0,0.795,0],[0,0.65,0]];verticalLabelPosition=bottom;sketch=0;html=1;verticalAlign=top;aspect=fixed;align=center;pointerEvents=1;shape=mxgraph.cisco19.user;fillColor=#005073;strokeColor=none;fontSize=10;" vertex="1" parent="1">
          <mxGeometry x="75" y="158" width="50" height="50" as="geometry" />
        </mxCell>
        <mxCell id="GgNEqTQJARG_0DhbJ5Vq-2" value="" style="endArrow=classicThin;html=1;rounded=0;fontSize=12;startSize=8;endSize=8;curved=1;endFill=1;" edge="1" parent="1">
          <mxGeometry width="50" height="50" relative="1" as="geometry">
            <mxPoint x="135" y="188" as="sourcePoint" />
            <mxPoint x="215" y="149" as="targetPoint" />
          </mxGeometry>
        </mxCell>
        <mxCell id="GgNEqTQJARG_0DhbJ5Vq-7" value="REST API&lt;br&gt;(Express.js)" style="rounded=0;whiteSpace=wrap;html=1;fontSize=11;" vertex="1" parent="1">
          <mxGeometry x="222" y="120" width="120" height="40" as="geometry" />
        </mxCell>
        <mxCell id="GgNEqTQJARG_0DhbJ5Vq-4" value="&lt;span style=&quot;font-family: Helvetica; font-size: 12px; font-style: normal; font-variant-ligatures: normal; font-variant-caps: normal; font-weight: 400; letter-spacing: normal; orphans: 2; text-align: center; text-indent: 0px; text-transform: none; widows: 2; word-spacing: 0px; -webkit-text-stroke-width: 0px; white-space: normal; text-decoration-thickness: initial; text-decoration-style: initial; text-decoration-color: initial; float: none; display: inline !important;&quot;&gt;Video Conversion REST API&lt;/span&gt;" style="text;html=1;align=center;verticalAlign=middle;whiteSpace=wrap;rounded=0;labelBackgroundColor=none;fontColor=light-dark(#000000,#FFFFFF);labelBorderColor=none;" vertex="1" parent="1">
          <mxGeometry x="202" y="82" width="158" height="20" as="geometry" />
        </mxCell>
        <mxCell id="GgNEqTQJARG_0DhbJ5Vq-9" value="In-memory Queue&lt;div style=&quot;line-height: 70%;&quot;&gt;&lt;font style=&quot;font-size: 6px; line-height: 70%;&quot;&gt;(simple-worker-&lt;/font&gt;&lt;div&gt;&lt;font style=&quot;font-size: 6px; line-height: 70%;&quot;&gt;thread-queue)&lt;/font&gt;&lt;/div&gt;&lt;/div&gt;" style="shape=cylinder3;whiteSpace=wrap;html=1;boundedLbl=1;backgroundOutline=1;size=15;labelPosition=center;verticalLabelPosition=middle;align=center;verticalAlign=middle;fontSize=11;" vertex="1" parent="1">
          <mxGeometry x="249" y="187" width="68" height="82" as="geometry" />
        </mxCell>
        <mxCell id="GgNEqTQJARG_0DhbJ5Vq-12" value="Enqueues Job" style="endArrow=classic;html=1;rounded=0;fontSize=8;startSize=8;endSize=8;curved=1;spacingBottom=12;" edge="1" parent="1">
          <mxGeometry width="50" height="50" relative="1" as="geometry">
            <mxPoint x="282.83000000000004" y="165" as="sourcePoint" />
            <mxPoint x="282.83000000000004" y="204" as="targetPoint" />
            <mxPoint as="offset" />
          </mxGeometry>
        </mxCell>
        <mxCell id="GgNEqTQJARG_0DhbJ5Vq-14" value="Job Processor" style="rounded=0;whiteSpace=wrap;html=1;fontSize=11;" vertex="1" parent="1">
          <mxGeometry x="376.25" y="182" width="133.75" height="60" as="geometry" />
        </mxCell>
        <mxCell id="GgNEqTQJARG_0DhbJ5Vq-16" value="Invokes Job" style="endArrow=classicThin;html=1;rounded=0;fontSize=8;startSize=8;endSize=8;curved=1;spacingTop=5;spacingRight=4;endFill=1;" edge="1" parent="1">
          <mxGeometry width="50" height="50" relative="1" as="geometry">
            <mxPoint x="326.5" y="219" as="sourcePoint" />
            <mxPoint x="369.5" y="197" as="targetPoint" />
            <mxPoint as="offset" />
          </mxGeometry>
        </mxCell>
        <mxCell id="GgNEqTQJARG_0DhbJ5Vq-18" value="Main Event Loop" style="text;html=1;align=left;verticalAlign=middle;whiteSpace=wrap;rounded=0;labelBackgroundColor=none;fontColor=light-dark(#000000,#FFFFFF);fontSize=10;" vertex="1" parent="1">
          <mxGeometry x="214" y="325" width="125" height="30" as="geometry" />
        </mxCell>
        <mxCell id="GgNEqTQJARG_0DhbJ5Vq-19" value="&lt;font style=&quot;text-wrap-mode: nowrap;&quot;&gt;Creates Conversion J&lt;/font&gt;&lt;span style=&quot;text-wrap-mode: nowrap; color: light-dark(rgb(0, 0, 0), rgb(255, 255, 255));&quot;&gt;ob&lt;/span&gt;&lt;div style=&quot;text-wrap-mode: nowrap;&quot;&gt;(POST Request)&lt;/div&gt;" style="text;html=1;align=center;verticalAlign=middle;whiteSpace=wrap;rounded=0;labelBackgroundColor=default;fontColor=light-dark(#000000,#FFFFFF);fontSize=8;" vertex="1" parent="1">
          <mxGeometry x="93" y="155" width="125" height="30" as="geometry" />
        </mxCell>
        <mxCell id="GgNEqTQJARG_0DhbJ5Vq-21" value="&lt;div style=&quot;&quot;&gt;&lt;span style=&quot;background-color: transparent; color: light-dark(rgb(0, 0, 0), rgb(255, 255, 255));&quot;&gt;Worker Threads&lt;/span&gt;&lt;/div&gt;" style="text;html=1;align=left;verticalAlign=middle;whiteSpace=wrap;rounded=0;labelBackgroundColor=none;fontColor=light-dark(#000000,#FFFFFF);fontSize=10;" vertex="1" parent="1">
          <mxGeometry x="364.5" y="255" width="125" height="30" as="geometry" />
        </mxCell>
        <mxCell id="GgNEqTQJARG_0DhbJ5Vq-24" value="" style="rounded=0;whiteSpace=wrap;html=1;" vertex="1" parent="1">
          <mxGeometry x="552" y="212" width="168" height="138" as="geometry" />
        </mxCell>
        <mxCell id="GgNEqTQJARG_0DhbJ5Vq-25" value="" style="image;sketch=0;aspect=fixed;html=1;points=[];align=center;fontSize=12;image=img/lib/mscae/Docker.svg;" vertex="1" parent="1">
          <mxGeometry x="671" y="306.56" width="42" height="34.44" as="geometry" />
        </mxCell>
        <mxCell id="GgNEqTQJARG_0DhbJ5Vq-26" value="&lt;span style=&quot;font-family: Helvetica; font-style: normal; font-variant-ligatures: normal; font-variant-caps: normal; font-weight: 400; letter-spacing: normal; orphans: 2; text-align: center; text-indent: 0px; text-transform: none; widows: 2; word-spacing: 0px; -webkit-text-stroke-width: 0px; white-space: normal; text-decoration-thickness: initial; text-decoration-style: initial; text-decoration-color: initial; float: none; display: inline !important;&quot;&gt;Docker Runtime&lt;/span&gt;" style="text;html=1;align=center;verticalAlign=middle;whiteSpace=wrap;rounded=0;labelBackgroundColor=none;fontColor=light-dark(#000000,#FFFFFF);labelBorderColor=none;fontSize=10;" vertex="1" parent="1">
          <mxGeometry x="546" y="328" width="96" height="20" as="geometry" />
        </mxCell>
        <mxCell id="GgNEqTQJARG_0DhbJ5Vq-27" value="" style="outlineConnect=0;dashed=0;verticalLabelPosition=bottom;verticalAlign=top;align=center;html=1;shape=mxgraph.aws3.android;fillColor=#8CC64F;gradientColor=none;" vertex="1" parent="1">
          <mxGeometry x="491.5" y="308" width="39.38" height="45" as="geometry" />
        </mxCell>
        <mxCell id="GgNEqTQJARG_0DhbJ5Vq-29" value="Node.js Runtime" style="text;html=1;align=left;verticalAlign=middle;whiteSpace=wrap;rounded=0;labelBackgroundColor=none;fontColor=light-dark(#000000,#FFFFFF);fontSize=10;" vertex="1" parent="1">
          <mxGeometry x="411" y="332" width="125" height="30" as="geometry" />
        </mxCell>
        <mxCell id="GgNEqTQJARG_0DhbJ5Vq-30" value="FFmpeg Conversion Container&lt;br&gt;(jrottenberg/ffmpeg)" style="rounded=0;whiteSpace=wrap;html=1;align=center;" vertex="1" parent="1">
          <mxGeometry x="565.12" y="236" width="142" height="60" as="geometry" />
        </mxCell>
        <mxCell id="GgNEqTQJARG_0DhbJ5Vq-31" value="" style="ellipse;shape=cloud;whiteSpace=wrap;html=1;" vertex="1" parent="1">
          <mxGeometry x="536.88" y="57" width="183.12" height="148" as="geometry" />
        </mxCell>
        <mxCell id="GgNEqTQJARG_0DhbJ5Vq-32" value="" style="outlineConnect=0;dashed=0;verticalLabelPosition=bottom;verticalAlign=top;align=center;html=1;shape=mxgraph.aws3.s3;fillColor=#E05243;gradientColor=none;" vertex="1" parent="1">
          <mxGeometry x="601" y="111" width="49" height="59.57" as="geometry" />
        </mxCell>
        <mxCell id="GgNEqTQJARG_0DhbJ5Vq-33" value="AWS S3 File Storage" style="text;html=1;align=left;verticalAlign=middle;whiteSpace=wrap;rounded=0;labelBackgroundColor=none;fontColor=light-dark(#000000,#FFFFFF);fontSize=10;" vertex="1" parent="1">
          <mxGeometry x="580" y="89" width="125" height="30" as="geometry" />
        </mxCell>
        <mxCell id="GgNEqTQJARG_0DhbJ5Vq-34" value="Reads Source&lt;div&gt;Video&lt;/div&gt;" style="endArrow=classicThin;html=1;rounded=0;fontSize=8;startSize=8;endSize=8;curved=1;endFill=1;" edge="1" parent="1">
          <mxGeometry x="0.0731" y="-8" width="50" height="50" relative="1" as="geometry">
            <mxPoint x="595" y="121" as="sourcePoint" />
            <mxPoint x="515.5" y="194.5" as="targetPoint" />
            <mxPoint as="offset" />
          </mxGeometry>
        </mxCell>
        <mxCell id="GgNEqTQJARG_0DhbJ5Vq-36" value="Writes Transcoded&lt;div&gt;Video&lt;/div&gt;" style="endArrow=none;html=1;rounded=0;fontSize=8;startSize=8;endSize=8;curved=1;startArrow=classicThin;startFill=1;endFill=0;spacingLeft=0;spacingRight=9;" edge="1" parent="1">
          <mxGeometry x="-0.2214" y="9" width="50" height="50" relative="1" as="geometry">
            <mxPoint x="596" y="160" as="sourcePoint" />
            <mxPoint x="516.5" y="233.5" as="targetPoint" />
            <mxPoint as="offset" />
          </mxGeometry>
        </mxCell>
        <mxCell id="GgNEqTQJARG_0DhbJ5Vq-42" value="Transcodes Video (Docker run cmd)" style="endArrow=classicThin;html=1;rounded=0;fontSize=8;startSize=8;endSize=8;curved=1;endFill=1;spacingBottom=0;spacingLeft=-18;spacingTop=2;align=left;" edge="1" parent="1">
          <mxGeometry x="0.9764" y="21" width="50" height="50" relative="1" as="geometry">
            <mxPoint x="517" y="205" as="sourcePoint" />
            <mxPoint x="573" y="232" as="targetPoint" />
            <Array as="points">
              <mxPoint x="560" y="212" />
            </Array>
            <mxPoint as="offset" />
          </mxGeometry>
        </mxCell>
        <mxCell id="GgNEqTQJARG_0DhbJ5Vq-43" value="" style="endArrow=none;html=1;rounded=0;fontSize=12;startSize=8;endSize=8;curved=1;startArrow=classicThin;startFill=1;endFill=0;" edge="1" parent="1">
          <mxGeometry width="50" height="50" relative="1" as="geometry">
            <mxPoint x="516" y="215" as="sourcePoint" />
            <mxPoint x="560" y="241.5" as="targetPoint" />
            <Array as="points">
              <mxPoint x="540" y="237" />
            </Array>
          </mxGeometry>
        </mxCell>
        <mxCell id="GgNEqTQJARG_0DhbJ5Vq-44" value="" style="rounded=0;whiteSpace=wrap;html=1;fontSize=11;" vertex="1" parent="1">
          <mxGeometry x="223" y="291" width="120" height="40" as="geometry" />
        </mxCell>
        <mxCell id="GgNEqTQJARG_0DhbJ5Vq-45" value="POSTs Completed&lt;div&gt;Job data&lt;/div&gt;" style="endArrow=classicThin;html=1;rounded=0;fontSize=8;startSize=8;endSize=8;curved=1;spacingTop=5;spacingRight=3;endFill=1;" edge="1" parent="1">
          <mxGeometry x="-0.1238" y="-3" width="50" height="50" relative="1" as="geometry">
            <mxPoint x="216" y="308" as="sourcePoint" />
            <mxPoint x="120" y="308" as="targetPoint" />
            <mxPoint as="offset" />
          </mxGeometry>
        </mxCell>
        <mxCell id="GgNEqTQJARG_0DhbJ5Vq-46" value="Completes Job" style="endArrow=none;html=1;rounded=0;fontSize=8;startSize=8;endSize=8;curved=1;startArrow=classicThin;startFill=1;endFill=0;spacingBottom=7;" edge="1" parent="1">
          <mxGeometry width="50" height="50" relative="1" as="geometry">
            <mxPoint x="326" y="248" as="sourcePoint" />
            <mxPoint x="368.38" y="225" as="targetPoint" />
            <mxPoint as="offset" />
          </mxGeometry>
        </mxCell>
        <mxCell id="GgNEqTQJARG_0DhbJ5Vq-47" value="External Systems" style="image;aspect=fixed;perimeter=ellipsePerimeter;html=1;align=center;shadow=0;dashed=0;spacingTop=3;image=img/lib/active_directory/web_server.svg;fontSize=10;" vertex="1" parent="1">
          <mxGeometry x="76" y="281" width="40" height="50" as="geometry" />
        </mxCell>
        <mxCell id="GgNEqTQJARG_0DhbJ5Vq-48" value="Completion&lt;br&gt;Callback" style="text;html=1;align=center;verticalAlign=middle;whiteSpace=wrap;rounded=0;labelBackgroundColor=none;fontColor=light-dark(#000000,#FFFFFF);fontSize=10;" vertex="1" parent="1">
          <mxGeometry x="220" y="292" width="125" height="30" as="geometry" />
        </mxCell>
        <mxCell id="GgNEqTQJARG_0DhbJ5Vq-49" value="&lt;font style=&quot;font-size: 7px;&quot;&gt;(optional)&lt;/font&gt;" style="text;html=1;align=center;verticalAlign=middle;whiteSpace=wrap;rounded=0;labelBackgroundColor=none;fontColor=light-dark(#000000,#FFFFFF);fontSize=10;" vertex="1" parent="1">
          <mxGeometry x="220" y="305.56" width="125" height="30" as="geometry" />
        </mxCell>
        <mxCell id="GgNEqTQJARG_0DhbJ5Vq-50" value="&lt;div style=&quot;line-height: 70%;&quot;&gt;Fires&lt;/div&gt;" style="endArrow=classic;html=1;rounded=0;fontSize=8;startSize=8;endSize=8;curved=1;spacingBottom=12;spacingTop=2;" edge="1" parent="1">
          <mxGeometry x="0.0061" width="50" height="50" relative="1" as="geometry">
            <mxPoint x="282.80000000000007" y="272" as="sourcePoint" />
            <mxPoint x="282.80000000000007" y="294" as="targetPoint" />
            <mxPoint as="offset" />
          </mxGeometry>
        </mxCell>
      </root>
    </mxGraphModel>
  </diagram>
</mxfile>
